<svg width="37" height="45" viewBox="0 0 37 45" fill="none" xmlns="http://www.w3.org/2000/svg">
<rect x="33.543" width="3" height="45" rx="1.5" fill="#020000"/>
<circle cx="19.543" cy="2" r="2" fill="#020000"/>
<circle cx="19.543" cy="43" r="2" fill="#020000"/>
<circle cx="3.54297" cy="2" r="2" fill="#020000"/>
<circle cx="3.54297" cy="43" r="2" fill="#020000"/>
<path d="M16.043 4.5C12.543 4.99999 7.54311 6.99998 6.54297 8H17.043C16.5448 7.50188 14.5579 6.50745 14.543 6.5L19.543 5.5C23.0429 7.50002 23.543 12.1 23.543 12.5C23.543 14 23.5429 19.5 13.043 23.5C4.54298 26.5 3.04298 30 3.04297 31.5H20.543C20.543 30.0054 19.0537 28.5108 19.043 28.5H6.54297L9.54297 26.5H16.543C15.5472 25.5043 13.5599 25.0042 13.543 25L17.543 23C19.0431 23.5002 24.043 27.5001 23.543 32C23.543 39.5 13.543 42 7.54297 44V40C11.043 39.5 18.043 36.5 20.543 33H3.04297C3.04501 33.0081 3.54705 35.001 5.54297 35.5H15.543L12.043 37H7.04297L8.54297 38L4.54297 39.5C2.04297 38 0.0429688 35.5 0.0429688 31.5C0.0429688 20.5 18.543 21 20.043 14C20.043 14 3.04296 13.5 3.04297 14C3.04298 14.5 4.04296 15.5 4.54297 15.5H17.043L14.543 17.5H6.54297L9.54297 19.5L5.54297 21.5C3.54296 20 -0.457036 17 0.0429688 12.5C0.0429688 4.9 10.7096 1.66667 16.043 1V4.5ZM4.54297 10C4.04297 10 3.04297 11.2 3.04297 12H20.543C20.543 11.3334 20.0429 10.5 19.543 10H4.54297Z" fill="#020000"/>
<path d="M19.543 41C19.143 41 16.7096 42 15.543 42.5C16.343 42.5 18.543 44.1667 19.543 45C19.7096 43.6667 19.943 41 19.543 41Z" fill="#020000"/>
<path d="M3.76385 0C4.54297 0 6.04297 1 7.54297 2C6.54297 2.5 5.04297 3.5 3.76385 4C3.59719 2.66667 3.36385 0 3.76385 0Z" fill="#020000"/>
</svg>
