<svg width="27" height="28" viewBox="0 0 27 28" fill="none" xmlns="http://www.w3.org/2000/svg">
<g clip-path="url(#clip0_539_27815)">
<path d="M18.5625 10.625C18.5625 11.9677 18.0291 13.2553 17.0797 14.2047C16.1303 15.1541 14.8427 15.6875 13.5 15.6875C12.1573 15.6875 10.8697 15.1541 9.92027 14.2047C8.97087 13.2553 8.4375 11.9677 8.4375 10.625C8.4375 9.28234 8.97087 7.99467 9.92027 7.04527C10.8697 6.09587 12.1573 5.5625 13.5 5.5625C14.8427 5.5625 16.1303 6.09587 17.0797 7.04527C18.0291 7.99467 18.5625 9.28234 18.5625 10.625Z" fill="white"/>
<path fill-rule="evenodd" clip-rule="evenodd" d="M0 14C0 10.4196 1.42232 6.9858 3.95406 4.45406C6.4858 1.92232 9.91958 0.5 13.5 0.5C17.0804 0.5 20.5142 1.92232 23.0459 4.45406C25.5777 6.9858 27 10.4196 27 14C27 17.5804 25.5777 21.0142 23.0459 23.5459C20.5142 26.0777 17.0804 27.5 13.5 27.5C9.91958 27.5 6.4858 26.0777 3.95406 23.5459C1.42232 21.0142 0 17.5804 0 14ZM13.5 2.1875C11.2755 2.18762 9.09624 2.81586 7.21305 3.99992C5.32987 5.18398 3.81929 6.87573 2.85519 8.88045C1.89109 10.8852 1.51265 13.1214 1.76343 15.3317C2.01422 17.542 2.88403 19.6366 4.27275 21.3744C5.47088 19.4439 8.10844 17.375 13.5 17.375C18.8916 17.375 21.5274 19.4422 22.7273 21.3744C24.116 19.6366 24.9858 17.542 25.2366 15.3317C25.4873 13.1214 25.1089 10.8852 24.1448 8.88045C23.1807 6.87573 21.6701 5.18398 19.7869 3.99992C17.9038 2.81586 15.7245 2.18762 13.5 2.1875Z" fill="white"/>
</g>
<defs>
<clipPath id="clip0_539_27815">
<rect width="27" height="27" fill="white" transform="translate(0 0.5)"/>
</clipPath>
</defs>
</svg>
